<svg width="234" height="57" viewBox="0 0 234 57" fill="none" xmlns="http://www.w3.org/2000/svg">
<rect width="234" height="57" rx="15" fill="url(#paint0_linear_1_179)"/>
<path d="M66.8539 30.5885H60.9554V35.0075H67.8502V37H58.4598V22.6383H67.7811V24.6505H60.9554V28.6158H66.8539V30.5885ZM71.8746 26.3274L71.9437 27.5603C72.7328 26.6068 73.7685 26.1301 75.0508 26.1301C77.2734 26.1301 78.4045 27.4025 78.4439 29.9474V37H76.047V30.0855C76.047 29.4082 75.8991 28.9084 75.6032 28.5862C75.3138 28.2574 74.8371 28.093 74.1729 28.093C73.2062 28.093 72.4862 28.5303 72.0127 29.4049V37H69.6158V26.3274H71.8746ZM83.2575 27.4913C84.04 26.5838 85.0297 26.1301 86.2265 26.1301C88.5017 26.1301 89.6558 27.4288 89.6887 30.0263V37H87.2918V30.1151C87.2918 29.3786 87.1307 28.8591 86.8084 28.5566C86.4928 28.2475 86.0259 28.093 85.4078 28.093C84.4477 28.093 83.7309 28.5204 83.2575 29.3753V37H80.8606V21.8492H83.2575V27.4913ZM98.4971 37C98.3918 36.7961 98.2998 36.4641 98.2209 36.0038C97.4581 36.7994 96.5243 37.1973 95.4195 37.1973C94.3477 37.1973 93.4731 36.8915 92.7958 36.2799C92.1185 35.6684 91.7798 34.9122 91.7798 34.0113C91.7798 32.8736 92.2007 32.0023 93.0424 31.3974C93.8907 30.7858 95.1006 30.48 96.6723 30.48H98.142V29.7797C98.142 29.2273 97.9874 28.7867 97.6784 28.4579C97.3693 28.1226 96.8991 27.9549 96.2678 27.9549C95.722 27.9549 95.2749 28.093 94.9264 28.3692C94.5778 28.6388 94.4036 28.984 94.4036 29.4049H92.0067C92.0067 28.8196 92.2007 28.2738 92.5886 27.7675C92.9766 27.2546 93.5027 26.8534 94.1668 26.5641C94.8376 26.2747 95.5839 26.1301 96.4059 26.1301C97.6553 26.1301 98.6516 26.4457 99.3947 27.077C100.138 27.7017 100.519 28.5829 100.539 29.7205V34.534C100.539 35.4941 100.674 36.2602 100.943 36.8323V37H98.4971ZM95.8634 35.2738C96.3369 35.2738 96.7808 35.1588 97.195 34.9286C97.6159 34.6984 97.9315 34.3894 98.142 34.0014V31.9892H96.8498C95.9621 31.9892 95.2946 32.1437 94.8474 32.4528C94.4003 32.7618 94.1767 33.1991 94.1767 33.7647C94.1767 34.225 94.328 34.5932 94.6304 34.8694C94.9395 35.139 95.3505 35.2738 95.8634 35.2738ZM105.273 26.3274L105.343 27.5603C106.132 26.6068 107.167 26.1301 108.45 26.1301C110.672 26.1301 111.803 27.4025 111.843 29.9474V37H109.446V30.0855C109.446 29.4082 109.298 28.9084 109.002 28.5862C108.713 28.2574 108.236 28.093 107.572 28.093C106.605 28.093 105.885 28.5303 105.412 29.4049V37H103.015V26.3274H105.273ZM118.678 35.2837C119.277 35.2837 119.773 35.1094 120.168 34.7609C120.562 34.4124 120.773 33.9817 120.799 33.4688H123.058C123.032 34.1329 122.825 34.7543 122.437 35.333C122.049 35.9051 121.522 36.3589 120.858 36.6942C120.194 37.0296 119.477 37.1973 118.708 37.1973C117.215 37.1973 116.032 36.7139 115.157 35.7473C114.282 34.7806 113.845 33.4457 113.845 31.7426V31.496C113.845 29.8718 114.279 28.573 115.147 27.5998C116.015 26.62 117.199 26.1301 118.698 26.1301C119.967 26.1301 121 26.5016 121.795 27.2447C122.598 27.9812 123.018 28.9511 123.058 30.1545H120.799C120.773 29.543 120.562 29.0399 120.168 28.6454C119.78 28.2508 119.283 28.0535 118.678 28.0535C117.902 28.0535 117.304 28.3363 116.883 28.9018C116.462 29.4608 116.249 30.3123 116.242 31.4565V31.8412C116.242 32.9986 116.449 33.8633 116.863 34.4354C117.284 35.0009 117.889 35.2837 118.678 35.2837ZM129.568 37.1973C128.049 37.1973 126.816 36.7205 125.869 35.767C124.929 34.8069 124.459 33.5312 124.459 31.9399V31.6439C124.459 30.5787 124.662 29.6284 125.07 28.7933C125.484 27.9516 126.063 27.2973 126.806 26.8304C127.549 26.3635 128.378 26.1301 129.292 26.1301C130.745 26.1301 131.866 26.5937 132.655 27.5209C133.451 28.4481 133.849 29.76 133.849 31.4565V32.4232H126.875C126.948 33.3044 127.24 34.0014 127.753 34.5143C128.273 35.0272 128.924 35.2837 129.706 35.2837C130.804 35.2837 131.699 34.8398 132.389 33.9521L133.681 35.1851C133.254 35.8229 132.682 36.3194 131.965 36.6745C131.255 37.023 130.456 37.1973 129.568 37.1973ZM129.282 28.0535C128.624 28.0535 128.092 28.2837 127.684 28.744C127.283 29.2043 127.026 29.8454 126.915 30.6674H131.482V30.4899C131.429 29.6876 131.215 29.0826 130.84 28.6749C130.466 28.2607 129.946 28.0535 129.282 28.0535ZM150.124 33.6956L151.821 26.3274H154.159L151.249 37H149.276L146.988 29.6712L144.739 37H142.766L139.846 26.3274H142.184L143.91 33.6167L146.1 26.3274H147.905L150.124 33.6956ZM158.311 37H155.914V26.3274H158.311V37ZM155.766 23.5556C155.766 23.1874 155.881 22.8816 156.112 22.6383C156.348 22.395 156.684 22.2733 157.118 22.2733C157.552 22.2733 157.887 22.395 158.124 22.6383C158.361 22.8816 158.479 23.1874 158.479 23.5556C158.479 23.9173 158.361 24.2198 158.124 24.4631C157.887 24.6998 157.552 24.8182 157.118 24.8182C156.684 24.8182 156.348 24.6998 156.112 24.4631C155.881 24.2198 155.766 23.9173 155.766 23.5556ZM163.934 23.7332V26.3274H165.818V28.1028H163.934V34.0606C163.934 34.4683 164.013 34.7642 164.17 34.9483C164.335 35.1259 164.624 35.2146 165.038 35.2146C165.315 35.2146 165.594 35.1818 165.877 35.116V36.9704C165.331 37.1217 164.805 37.1973 164.299 37.1973C162.457 37.1973 161.537 36.1813 161.537 34.1494V28.1028H159.781V26.3274H161.537V23.7332H163.934ZM170.02 27.4913C170.802 26.5838 171.792 26.1301 172.989 26.1301C175.264 26.1301 176.418 27.4288 176.451 30.0263V37H174.054V30.1151C174.054 29.3786 173.893 28.8591 173.571 28.5566C173.255 28.2475 172.788 28.093 172.17 28.093C171.21 28.093 170.493 28.5204 170.02 29.3753V37H167.623V21.8492H170.02V27.4913ZM192.184 33.6562H186.62L185.456 37H182.862L188.287 22.6383H190.526L195.961 37H193.357L192.184 33.6562ZM187.321 31.6439H191.483L189.402 25.6862L187.321 31.6439ZM200.232 37H197.747V22.6383H200.232V37Z" fill="white"/>
<path d="M29.3334 33.6667H27C26.3812 33.6667 25.7877 33.4208 25.3501 32.9833C24.9125 32.5457 24.6667 31.9522 24.6667 31.3333V22C24.6667 21.3812 24.9125 20.7877 25.3501 20.3501C25.7877 19.9125 26.3812 19.6667 27 19.6667H36.3334C36.9522 19.6667 37.5457 19.9125 37.9833 20.3501C38.4209 20.7877 38.6667 21.3812 38.6667 22V24.3333L29.3334 33.6667ZM31.6667 38.3333H41C41.6189 38.3333 42.2123 38.0875 42.6499 37.6499C43.0875 37.2123 43.3334 36.6188 43.3334 36V26.6667C43.3334 26.0478 43.0875 25.4543 42.6499 25.0168C42.2123 24.5792 41.6189 24.3333 41 24.3333H31.6667C31.0478 24.3333 30.4544 24.5792 30.0168 25.0168C29.5792 25.4543 29.3334 26.0478 29.3334 26.6667V36C29.3334 36.6188 29.5792 37.2123 30.0168 37.6499C30.4544 38.0875 31.0478 38.3333 31.6667 38.3333Z" stroke="white" stroke-width="2" stroke-linecap="round" stroke-linejoin="round"/>
<defs>
<linearGradient id="paint0_linear_1_179" x1="-4.47296e-07" y1="27.9184" x2="234" y2="27.9184" gradientUnits="userSpaceOnUse">
<stop stop-color="#795FFD"/>
<stop offset="1" stop-color="#3518C9"/>
</linearGradient>
</defs>
</svg>
