<svg width="203" height="49" viewBox="0 0 203 49" fill="none" xmlns="http://www.w3.org/2000/svg">
<rect width="203" height="49" rx="15" fill="#A998FF"/>
<path d="M69.2311 26.4429C69.0536 27.9619 68.4913 29.1357 67.5444 29.9643C66.6041 30.7863 65.3514 31.1973 63.7863 31.1973C62.0897 31.1973 60.7285 30.589 59.7027 29.3725C58.6834 28.1559 58.1738 26.5284 58.1738 24.4899V23.109C58.1738 21.774 58.4105 20.6003 58.884 19.5876C59.364 18.5749 60.0413 17.7989 60.9159 17.2597C61.7905 16.7139 62.8032 16.441 63.954 16.441C65.4796 16.441 66.7027 16.8684 67.6233 17.7233C68.5439 18.5716 69.0799 19.7487 69.2311 21.2546H67.3274C67.163 20.1104 66.8046 19.2818 66.2523 18.7689C65.7065 18.256 64.9404 17.9995 63.954 17.9995C62.744 17.9995 61.7938 18.4467 61.1033 19.341C60.4195 20.2353 60.0775 21.5077 60.0775 23.1583V24.5491C60.0775 26.1075 60.403 27.3471 61.054 28.2677C61.705 29.1883 62.6158 29.6487 63.7863 29.6487C64.8384 29.6487 65.644 29.4119 66.2029 28.9385C66.7685 28.4584 67.1433 27.6266 67.3274 26.4429H69.2311ZM71.0559 25.565C71.0559 24.5195 71.2598 23.5791 71.6675 22.744C72.0818 21.9089 72.6539 21.2644 73.3838 20.8107C74.1203 20.3569 74.9587 20.1301 75.8991 20.1301C77.3523 20.1301 78.5261 20.6331 79.4204 21.6392C80.3213 22.6454 80.7718 23.9835 80.7718 25.6538V25.782C80.7718 26.821 80.5712 27.7548 80.1701 28.5834C79.7755 29.4054 79.2067 30.0465 78.4637 30.5068C77.7272 30.9671 76.8789 31.1973 75.9188 31.1973C74.4721 31.1973 73.2983 30.6942 72.3974 29.6881C71.5031 28.682 71.0559 27.3504 71.0559 25.6933V25.565ZM72.8906 25.782C72.8906 26.9657 73.1635 27.9159 73.7093 28.6327C74.2617 29.3495 74.9982 29.7078 75.9188 29.7078C76.846 29.7078 77.5825 29.3462 78.1283 28.6228C78.6741 27.8929 78.947 26.8736 78.947 25.565C78.947 24.3945 78.6675 23.4476 78.1086 22.7243C77.5562 21.9943 76.8197 21.6294 75.8991 21.6294C74.9982 21.6294 74.2715 21.9878 73.7192 22.7045C73.1668 23.4213 72.8906 24.4471 72.8906 25.782ZM84.7864 20.3274L84.8455 21.6688C85.661 20.643 86.7262 20.1301 88.0414 20.1301C90.2969 20.1301 91.4346 21.4025 91.4543 23.9474V31H89.6295V23.9375C89.6229 23.1681 89.4454 22.5993 89.0968 22.2311C88.7549 21.8628 88.219 21.6787 87.489 21.6787C86.8972 21.6787 86.3777 21.8365 85.9306 22.1522C85.4834 22.4678 85.1349 22.8821 84.885 23.395V31H83.0602V20.3274H84.7864ZM97.7277 28.5242L100.371 20.3274H102.235L98.4083 31H97.0175L93.1509 20.3274H95.0151L97.7277 28.5242ZM108.282 31.1973C106.835 31.1973 105.658 30.7238 104.751 29.7769C103.843 28.8234 103.39 27.551 103.39 25.9596V25.6242C103.39 24.5655 103.59 23.6219 103.991 22.7933C104.399 21.9582 104.964 21.3072 105.688 20.8403C106.418 20.3668 107.207 20.1301 108.055 20.1301C109.443 20.1301 110.521 20.5871 111.29 21.5011C112.06 22.4152 112.444 23.7238 112.444 25.4269V26.1865H105.214C105.241 27.2386 105.546 28.0902 106.132 28.7412C106.723 29.3856 107.473 29.7078 108.381 29.7078C109.025 29.7078 109.571 29.5763 110.018 29.3133C110.465 29.0503 110.856 28.7017 111.192 28.2677L112.306 29.1357C111.412 30.5101 110.071 31.1973 108.282 31.1973ZM108.055 21.6294C107.319 21.6294 106.7 21.899 106.201 22.4382C105.701 22.9709 105.392 23.7205 105.273 24.6872H110.62V24.5491C110.567 23.6219 110.317 22.9051 109.87 22.3988C109.423 21.8858 108.818 21.6294 108.055 21.6294ZM119.724 21.9647C119.448 21.9187 119.149 21.8957 118.826 21.8957C117.63 21.8957 116.817 22.4053 116.39 23.4246V31H114.565V20.3274H116.341L116.37 21.5603C116.969 20.6068 117.817 20.1301 118.915 20.1301C119.27 20.1301 119.54 20.1761 119.724 20.2682V21.9647ZM124.38 17.743V20.3274H126.372V21.7379H124.38V28.3565C124.38 28.7839 124.468 29.1061 124.646 29.3232C124.824 29.5336 125.126 29.6388 125.553 29.6388C125.764 29.6388 126.053 29.5993 126.422 29.5204V31C125.941 31.1315 125.475 31.1973 125.021 31.1973C124.205 31.1973 123.591 30.9507 123.176 30.4575C122.762 29.9643 122.555 29.264 122.555 28.3565V21.7379H120.612V20.3274H122.555V17.743H124.38ZM144.374 26.4429C144.196 27.9619 143.634 29.1357 142.687 29.9643C141.747 30.7863 140.494 31.1973 138.929 31.1973C137.232 31.1973 135.871 30.589 134.845 29.3725C133.826 28.1559 133.316 26.5284 133.316 24.4899V23.109C133.316 21.774 133.553 20.6003 134.027 19.5876C134.507 18.5749 135.184 17.7989 136.058 17.2597C136.933 16.7139 137.946 16.441 139.097 16.441C140.622 16.441 141.845 16.8684 142.766 17.7233C143.686 18.5716 144.222 19.7487 144.374 21.2546H142.47C142.306 20.1104 141.947 19.2818 141.395 18.7689C140.849 18.256 140.083 17.9995 139.097 17.9995C137.887 17.9995 136.936 18.4467 136.246 19.341C135.562 20.2353 135.22 21.5077 135.22 23.1583V24.5491C135.22 26.1075 135.546 27.3471 136.197 28.2677C136.848 29.1883 137.758 29.6487 138.929 29.6487C139.981 29.6487 140.787 29.4119 141.345 28.9385C141.911 28.4584 142.286 27.6266 142.47 26.4429H144.374ZM146.198 25.565C146.198 24.5195 146.402 23.5791 146.81 22.744C147.224 21.9089 147.796 21.2644 148.526 20.8107C149.263 20.3569 150.101 20.1301 151.042 20.1301C152.495 20.1301 153.669 20.6331 154.563 21.6392C155.464 22.6454 155.914 23.9835 155.914 25.6538V25.782C155.914 26.821 155.714 27.7548 155.313 28.5834C154.918 29.4054 154.349 30.0465 153.606 30.5068C152.87 30.9671 152.021 31.1973 151.061 31.1973C149.615 31.1973 148.441 30.6942 147.54 29.6881C146.646 28.682 146.198 27.3504 146.198 25.6933V25.565ZM148.033 25.782C148.033 26.9657 148.306 27.9159 148.852 28.6327C149.404 29.3495 150.141 29.7078 151.061 29.7078C151.989 29.7078 152.725 29.3462 153.271 28.6228C153.817 27.8929 154.09 26.8736 154.09 25.565C154.09 24.3945 153.81 23.4476 153.251 22.7243C152.699 21.9943 151.962 21.6294 151.042 21.6294C150.141 21.6294 149.414 21.9878 148.862 22.7045C148.309 23.4213 148.033 24.4471 148.033 25.782ZM157.759 25.5749C157.759 23.9375 158.147 22.6223 158.923 21.6294C159.699 20.6298 160.715 20.1301 161.971 20.1301C163.22 20.1301 164.21 20.5575 164.94 21.4124V15.8492H166.765V31H165.088L164.999 29.8558C164.269 30.7501 163.253 31.1973 161.951 31.1973C160.715 31.1973 159.705 30.6909 158.923 29.6782C158.147 28.6656 157.759 27.3438 157.759 25.713V25.5749ZM159.584 25.782C159.584 26.992 159.834 27.9389 160.333 28.6228C160.833 29.3067 161.524 29.6487 162.405 29.6487C163.562 29.6487 164.407 29.1292 164.94 28.0902V23.1879C164.394 22.1818 163.555 21.6787 162.424 21.6787C161.53 21.6787 160.833 22.0239 160.333 22.7144C159.834 23.4049 159.584 24.4274 159.584 25.782ZM174.034 31.1973C172.587 31.1973 171.41 30.7238 170.503 29.7769C169.595 28.8234 169.142 27.551 169.142 25.9596V25.6242C169.142 24.5655 169.342 23.6219 169.743 22.7933C170.151 21.9582 170.717 21.3072 171.44 20.8403C172.17 20.3668 172.959 20.1301 173.807 20.1301C175.195 20.1301 176.273 20.5871 177.043 21.5011C177.812 22.4152 178.197 23.7238 178.197 25.4269V26.1865H170.966C170.993 27.2386 171.299 28.0902 171.884 28.7412C172.476 29.3856 173.225 29.7078 174.133 29.7078C174.777 29.7078 175.323 29.5763 175.77 29.3133C176.217 29.0503 176.609 28.7017 176.944 28.2677L178.059 29.1357C177.164 30.5101 175.823 31.1973 174.034 31.1973ZM173.807 21.6294C173.071 21.6294 172.453 21.899 171.953 22.4382C171.453 22.9709 171.144 23.7205 171.026 24.6872H176.372V24.5491C176.319 23.6219 176.069 22.9051 175.622 22.3988C175.175 21.8858 174.57 21.6294 173.807 21.6294Z" fill="#381BCB"/>
<path d="M23 29L27 25M27 19H39H27ZM39 19L35 15L39 19ZM39 19L35 23L39 19ZM35 29H23H35ZM23 29L27 33L23 29Z" stroke="#381BCB" stroke-width="2" stroke-linecap="round" stroke-linejoin="round"/>
</svg>
