<svg width="148" height="49" viewBox="0 0 148 49" fill="none" xmlns="http://www.w3.org/2000/svg">
<rect width="148" height="49" rx="15" fill="#A998FF"/>
<path d="M70.9343 25.1902H67.5608V31H65.6571V16.6383H70.4115C72.0291 16.6383 73.272 17.0065 74.14 17.743C75.0146 18.4795 75.4519 19.5514 75.4519 20.9586C75.4519 21.853 75.2086 22.6322 74.722 23.2964C74.2419 23.9605 73.5712 24.457 72.7097 24.7858L76.0832 30.8816V31H74.0512L70.9343 25.1902ZM67.5608 23.6416H70.4707C71.411 23.6416 72.1574 23.3983 72.7097 22.9117C73.2687 22.4251 73.5482 21.774 73.5482 20.9586C73.5482 20.0709 73.2818 19.3903 72.7492 18.9168C72.2231 18.4434 71.4603 18.2033 70.4608 18.1968H67.5608V23.6416ZM82.2579 31.1973C80.8112 31.1973 79.6341 30.7238 78.7267 29.7769C77.8192 28.8234 77.3655 27.551 77.3655 25.9596V25.6242C77.3655 24.5655 77.566 23.6219 77.9672 22.7933C78.3749 21.9582 78.9404 21.3072 79.6637 20.8403C80.3937 20.3668 81.1828 20.1301 82.031 20.1301C83.4186 20.1301 84.497 20.5871 85.2664 21.5011C86.0358 22.4152 86.4204 23.7238 86.4204 25.4269V26.1865H79.1903C79.2166 27.2386 79.5224 28.0902 80.1076 28.7412C80.6994 29.3856 81.4491 29.7078 82.3566 29.7078C83.001 29.7078 83.5468 29.5763 83.9939 29.3133C84.4411 29.0503 84.8324 28.7017 85.1677 28.2677L86.2824 29.1357C85.388 30.5101 84.0466 31.1973 82.2579 31.1973ZM82.031 21.6294C81.2946 21.6294 80.6764 21.899 80.1767 22.4382C79.6769 22.9709 79.3678 23.7205 79.2495 24.6872H84.5956V24.5491C84.543 23.6219 84.2932 22.9051 83.846 22.3988C83.3988 21.8858 82.7939 21.6294 82.031 21.6294ZM88.1072 25.5749C88.1072 23.9112 88.4918 22.5895 89.2612 21.6097C90.0306 20.6233 91.0499 20.1301 92.319 20.1301C93.621 20.1301 94.637 20.5904 95.3669 21.511L95.4557 20.3274H97.1227V30.7435C97.1227 32.1245 96.7117 33.2128 95.8897 34.0085C95.0743 34.8041 93.9761 35.202 92.5952 35.202C91.8258 35.202 91.0729 35.0376 90.3364 34.7088C89.5999 34.38 89.0376 33.9296 88.6497 33.3575L89.5966 32.2626C90.3791 33.2292 91.3359 33.7125 92.467 33.7125C93.3547 33.7125 94.0452 33.4627 94.5384 32.9629C95.0381 32.4631 95.288 31.7595 95.288 30.852V29.9347C94.5581 30.7764 93.5618 31.1973 92.2993 31.1973C91.0499 31.1973 90.0372 30.6942 89.2612 29.6881C88.4918 28.682 88.1072 27.3109 88.1072 25.5749ZM89.9418 25.782C89.9418 26.9854 90.1884 27.9324 90.6816 28.6228C91.1748 29.3067 91.8653 29.6487 92.753 29.6487C93.9038 29.6487 94.7488 29.1259 95.288 28.0803V23.2076C94.7291 22.1883 93.8906 21.6787 92.7727 21.6787C91.885 21.6787 91.1912 22.0239 90.6915 22.7144C90.1917 23.4049 89.9418 24.4274 89.9418 25.782ZM104.313 31.1973C102.867 31.1973 101.69 30.7238 100.782 29.7769C99.8747 28.8234 99.421 27.551 99.421 25.9596V25.6242C99.421 24.5655 99.6215 23.6219 100.023 22.7933C100.43 21.9582 100.996 21.3072 101.719 20.8403C102.449 20.3668 103.238 20.1301 104.087 20.1301C105.474 20.1301 106.552 20.5871 107.322 21.5011C108.091 22.4152 108.476 23.7238 108.476 25.4269V26.1865H101.246C101.272 27.2386 101.578 28.0902 102.163 28.7412C102.755 29.3856 103.505 29.7078 104.412 29.7078C105.056 29.7078 105.602 29.5763 106.049 29.3133C106.497 29.0503 106.888 28.7017 107.223 28.2677L108.338 29.1357C107.444 30.5101 106.102 31.1973 104.313 31.1973ZM104.087 21.6294C103.35 21.6294 102.732 21.899 102.232 22.4382C101.732 22.9709 101.423 23.7205 101.305 24.6872H106.651V24.5491C106.599 23.6219 106.349 22.9051 105.901 22.3988C105.454 21.8858 104.849 21.6294 104.087 21.6294ZM114.177 24.2236L116.545 20.3274H118.675L115.183 25.6045L118.784 31H116.673L114.207 27.0052L111.741 31H109.62L113.22 25.6045L109.729 20.3274H111.839L114.177 24.2236Z" fill="#1F00BB"/>
<path d="M22.625 24.5698C22.625 23.0435 22.8563 21.6175 23.3188 20.2886C23.7639 19.0041 24.4516 17.8171 25.3445 16.7921H27.6046C26.7588 17.8936 26.1071 19.1313 25.6775 20.452C24.8122 23.1148 24.816 25.9838 25.6883 28.6444C26.1354 29.9548 26.7675 31.145 27.5845 32.2087H25.3491C24.4525 31.2126 23.7638 30.0474 23.3234 28.7816C22.8529 27.4277 22.6182 26.0031 22.6296 24.5698" fill="#1F00BB"/>
<path d="M33.4167 30.6667C33.4167 31.0755 33.2543 31.4677 32.9651 31.7568C32.676 32.0459 32.2839 32.2083 31.875 32.2083C31.4661 32.2083 31.074 32.0459 30.7849 31.7568C30.4958 31.4677 30.3333 31.0755 30.3333 30.6667C30.3333 30.2578 30.4958 29.8657 30.7849 29.5765C31.074 29.2874 31.4661 29.125 31.875 29.125C32.2839 29.125 32.676 29.2874 32.9651 29.5765C33.2543 29.8657 33.4167 30.2578 33.4167 30.6667Z" fill="#1F00BB"/>
<path d="M39.9687 16.8117L39.5987 20.1355L42.9704 19.1951L43.2679 21.4614L40.1969 21.6772L42.2119 24.3597L40.1615 25.4543L38.7524 22.6284L37.519 25.4373L35.3915 24.3613L37.3895 21.6788L34.337 21.4444L34.6916 19.1874L37.9908 20.1278L37.6208 16.8009H39.9857" fill="#1F00BB"/>
<path d="M50.375 24.5694C50.375 26.0833 50.1407 27.4924 49.6705 28.7997C49.2318 30.0585 48.5468 31.2172 47.6555 32.2083H45.4155C46.2356 31.1326 46.8736 29.9295 47.304 28.6471C47.7511 27.329 47.9731 25.9646 47.9731 24.5463C47.9731 23.1433 47.7573 21.7759 47.3225 20.4454C46.8941 19.1249 46.2434 17.8871 45.3985 16.7855H47.657C48.5553 17.8134 49.2431 19.0076 49.6813 20.3005C50.1438 21.6263 50.375 23.0478 50.375 24.5617" fill="#1F00BB"/>
</svg>
