<svg width="198" height="49" viewBox="0 0 198 49" fill="none" xmlns="http://www.w3.org/2000/svg">
<rect width="198" height="49" rx="15" fill="white"/>
<path d="M67.8539 24.5885H61.9554V29.0075H68.8502V31H59.4598V16.6383H68.7811V18.6505H61.9554V22.6158H67.8539V24.5885ZM74.4824 23.8389L76.5144 20.3274H79.1776L75.9127 25.5848L79.2861 31H76.6426L74.512 27.3504L72.3913 31H69.7281L73.1015 25.5848L69.8464 20.3274H72.4899L74.4824 23.8389ZM90.156 25.7722C90.156 27.4227 89.7812 28.7412 89.0316 29.7276C88.2819 30.7074 87.2758 31.1973 86.0132 31.1973C84.8427 31.1973 83.9057 30.8126 83.202 30.0432V35.1033H80.8051V20.3274H83.0146L83.1133 21.4124C83.8169 20.5575 84.7737 20.1301 85.9836 20.1301C87.2857 20.1301 88.3049 20.6167 89.0414 21.5899C89.7845 22.5566 90.156 23.9013 90.156 25.6242V25.7722ZM87.769 25.565C87.769 24.4997 87.5553 23.6547 87.1278 23.03C86.707 22.4053 86.102 22.093 85.3129 22.093C84.3331 22.093 83.6295 22.4974 83.202 23.3062V28.0409C83.636 28.8694 84.3462 29.2837 85.3326 29.2837C86.0954 29.2837 86.6905 28.9779 87.118 28.3664C87.552 27.7482 87.769 26.8145 87.769 25.565ZM94.7427 31H92.3458V15.8492H94.7427V31ZM103.738 31C103.633 30.7961 103.541 30.4641 103.462 30.0038C102.7 30.7994 101.766 31.1973 100.661 31.1973C99.5891 31.1973 98.7145 30.8915 98.0372 30.2799C97.3599 29.6684 97.0212 28.9122 97.0212 28.0113C97.0212 26.8736 97.4421 26.0023 98.2838 25.3974C99.1321 24.7858 100.342 24.48 101.914 24.48H103.383V23.7797C103.383 23.2273 103.229 22.7867 102.92 22.4579C102.611 22.1226 102.141 21.9549 101.509 21.9549C100.963 21.9549 100.516 22.093 100.168 22.3692C99.8193 22.6388 99.645 22.984 99.645 23.4049H97.2481C97.2481 22.8196 97.4421 22.2738 97.8301 21.7675C98.2181 21.2546 98.7441 20.8534 99.4083 20.5641C100.079 20.2747 100.825 20.1301 101.647 20.1301C102.897 20.1301 103.893 20.4457 104.636 21.077C105.379 21.7017 105.761 22.5829 105.78 23.7205V28.534C105.78 29.4941 105.915 30.2602 106.185 30.8323V31H103.738ZM101.105 29.2738C101.578 29.2738 102.022 29.1588 102.436 28.9286C102.857 28.6984 103.173 28.3894 103.383 28.0014V25.9892H102.091C101.203 25.9892 100.536 26.1437 100.089 26.4528C99.6417 26.7618 99.4181 27.1991 99.4181 27.7647C99.4181 28.225 99.5694 28.5932 99.8719 28.8694C100.181 29.139 100.592 29.2738 101.105 29.2738ZM110.84 31H108.444V20.3274H110.84V31ZM108.296 17.5556C108.296 17.1874 108.411 16.8816 108.641 16.6383C108.878 16.395 109.213 16.2733 109.647 16.2733C110.081 16.2733 110.416 16.395 110.653 16.6383C110.89 16.8816 111.008 17.1874 111.008 17.5556C111.008 17.9173 110.89 18.2198 110.653 18.4631C110.416 18.6998 110.081 18.8182 109.647 18.8182C109.213 18.8182 108.878 18.6998 108.641 18.4631C108.411 18.2198 108.296 17.9173 108.296 17.5556ZM115.684 20.3274L115.753 21.5603C116.542 20.6068 117.577 20.1301 118.86 20.1301C121.082 20.1301 122.213 21.4025 122.253 23.9474V31H119.856V24.0855C119.856 23.4082 119.708 22.9084 119.412 22.5862C119.123 22.2574 118.646 22.093 117.982 22.093C117.015 22.093 116.295 22.5303 115.822 23.4049V31H113.425V20.3274H115.684ZM140.925 26.3246C140.78 27.8567 140.215 29.0535 139.228 29.915C138.242 30.7698 136.93 31.1973 135.293 31.1973C134.149 31.1973 133.139 30.9277 132.265 30.3884C131.397 29.8426 130.726 29.07 130.252 28.0704C129.779 27.0709 129.532 25.9103 129.513 24.5885V23.247C129.513 21.8924 129.753 20.6989 130.233 19.6665C130.713 18.6341 131.4 17.8384 132.294 17.2794C133.195 16.7205 134.234 16.441 135.411 16.441C136.996 16.441 138.272 16.8717 139.238 17.7332C140.205 18.5946 140.767 19.8111 140.925 21.3828H138.439C138.321 20.3504 138.019 19.6073 137.532 19.1536C137.052 18.6932 136.345 18.4631 135.411 18.4631C134.326 18.4631 133.491 18.8609 132.906 19.6566C132.327 20.4457 132.031 21.6064 132.018 23.1385V24.411C132.018 25.9629 132.294 27.1465 132.847 27.9619C133.406 28.7774 134.221 29.1851 135.293 29.1851C136.273 29.1851 137.009 28.9648 137.502 28.5242C137.996 28.0836 138.308 27.3504 138.439 26.3246H140.925ZM142.484 25.565C142.484 24.5195 142.691 23.5791 143.105 22.744C143.519 21.9023 144.101 21.2578 144.851 20.8107C145.601 20.3569 146.462 20.1301 147.435 20.1301C148.875 20.1301 150.043 20.5937 150.937 21.5209C151.838 22.4481 152.324 23.6778 152.397 25.2099L152.407 25.7722C152.407 26.8243 152.203 27.7647 151.795 28.5932C151.394 29.4218 150.815 30.0629 150.059 30.5167C149.309 30.9704 148.441 31.1973 147.455 31.1973C145.949 31.1973 144.742 30.6975 143.835 29.698C142.934 28.6919 142.484 27.3537 142.484 25.6834V25.565ZM144.88 25.7722C144.88 26.8704 145.107 27.7318 145.561 28.3565C146.015 28.9746 146.646 29.2837 147.455 29.2837C148.264 29.2837 148.892 28.9681 149.339 28.3368C149.793 27.7055 150.02 26.7816 150.02 25.565C150.02 24.4866 149.786 23.6317 149.319 23.0004C148.859 22.3692 148.231 22.0535 147.435 22.0535C146.653 22.0535 146.031 22.3659 145.571 22.9906C145.111 23.6087 144.88 24.5359 144.88 25.7722ZM153.985 25.5848C153.985 23.9408 154.366 22.6223 155.129 21.6294C155.892 20.6298 156.914 20.1301 158.197 20.1301C159.328 20.1301 160.242 20.5246 160.939 21.3137V15.8492H163.336V31H161.166L161.047 29.8953C160.33 30.7633 159.374 31.1973 158.177 31.1973C156.927 31.1973 155.915 30.6942 155.139 29.6881C154.369 28.682 153.985 27.3142 153.985 25.5848ZM156.382 25.7919C156.382 26.8769 156.589 27.7252 157.003 28.3368C157.424 28.9418 158.019 29.2442 158.788 29.2442C159.768 29.2442 160.485 28.8069 160.939 27.9324V23.3753C160.498 22.5204 159.788 22.093 158.808 22.093C158.032 22.093 157.434 22.402 157.013 23.0202C156.592 23.6317 156.382 24.5556 156.382 25.7919ZM170.536 31.1973C169.017 31.1973 167.784 30.7205 166.837 29.767C165.897 28.8069 165.427 27.5312 165.427 25.9399V25.6439C165.427 24.5787 165.631 23.6284 166.038 22.7933C166.453 21.9516 167.031 21.2973 167.774 20.8304C168.517 20.3635 169.346 20.1301 170.26 20.1301C171.713 20.1301 172.835 20.5937 173.624 21.5209C174.419 22.4481 174.817 23.76 174.817 25.4565V26.4232H167.843C167.916 27.3044 168.208 28.0014 168.721 28.5143C169.241 29.0272 169.892 29.2837 170.674 29.2837C171.773 29.2837 172.667 28.8398 173.357 27.9521L174.649 29.1851C174.222 29.8229 173.65 30.3194 172.933 30.6745C172.223 31.023 171.424 31.1973 170.536 31.1973ZM170.25 22.0535C169.593 22.0535 169.06 22.2837 168.652 22.744C168.251 23.2043 167.995 23.8454 167.883 24.6674H172.45V24.4899C172.397 23.6876 172.183 23.0826 171.809 22.6749C171.434 22.2607 170.914 22.0535 170.25 22.0535Z" fill="#381BCB"/>
<path d="M26 21H36H26ZM26 25H30H26ZM31 33L27 29H24C23.4696 29 22.9609 28.7893 22.5858 28.4142C22.2107 28.0391 22 27.5304 22 27V19C22 18.4696 22.2107 17.9609 22.5858 17.5858C22.9609 17.2107 23.4696 17 24 17H38C38.5304 17 39.0391 17.2107 39.4142 17.5858C39.7893 17.9609 40 18.4696 40 19V27C40 27.5304 39.7893 28.0391 39.4142 28.4142C39.0391 28.7893 38.5304 29 38 29H35L31 33Z" stroke="#381BCB" stroke-width="2" stroke-linecap="round" stroke-linejoin="round"/>
</svg>
