<svg width="201" height="49" viewBox="0 0 201 49" fill="none" xmlns="http://www.w3.org/2000/svg">
<rect width="201" height="49" rx="15" fill="#A998FF"/>
<path d="M67.5876 24.6576H61.5608V31H59.667V16.6383H68.5641V18.1968H61.5608V23.109H67.5876V24.6576ZM72.5294 31H70.7046V20.3274H72.5294V31ZM70.5566 17.4964C70.5566 17.2005 70.6454 16.9506 70.823 16.7468C71.0071 16.5429 71.2767 16.441 71.6318 16.441C71.9869 16.441 72.2565 16.5429 72.4406 16.7468C72.6247 16.9506 72.7168 17.2005 72.7168 17.4964C72.7168 17.7924 72.6247 18.039 72.4406 18.2362C72.2565 18.4335 71.9869 18.5321 71.6318 18.5321C71.2767 18.5321 71.0071 18.4335 70.823 18.2362C70.6454 18.039 70.5566 17.7924 70.5566 17.4964ZM79.0395 24.2236L81.4068 20.3274H83.5374L80.0456 25.6045L83.6459 31H81.5351L79.0691 27.0052L76.6032 31H74.4824L78.0827 25.6045L74.5909 20.3274H76.7018L79.0395 24.2236ZM101.381 29.116C100.894 29.8131 100.214 30.3358 99.3392 30.6844C98.4712 31.0263 97.4585 31.1973 96.3012 31.1973C95.1307 31.1973 94.0917 30.9244 93.1842 30.3786C92.2767 29.8262 91.5731 29.0437 91.0734 28.031C90.5802 27.0183 90.327 25.8445 90.3138 24.5096V23.2569C90.3138 21.0934 90.8169 19.4166 91.823 18.2264C92.8357 17.0361 94.2561 16.441 96.0842 16.441C97.5835 16.441 98.7902 16.8257 99.7042 17.5951C100.618 18.3579 101.177 19.4429 101.381 20.8501H99.4872C99.1321 18.9497 98.001 17.9995 96.094 17.9995C94.8249 17.9995 93.8615 18.4467 93.2039 19.341C92.5529 20.2287 92.2241 21.5176 92.2176 23.2076V24.3814C92.2176 25.9925 92.5858 27.2748 93.3223 28.2283C94.0588 29.1752 95.0551 29.6487 96.311 29.6487C97.0212 29.6487 97.6427 29.5697 98.1753 29.4119C98.708 29.2541 99.1485 28.9878 99.4971 28.613V25.3875H96.173V23.8487H101.381V29.116ZM109.42 21.9647C109.144 21.9187 108.845 21.8957 108.522 21.8957C107.326 21.8957 106.514 22.4053 106.086 23.4246V31H104.261V20.3274H106.037L106.066 21.5603C106.665 20.6068 107.513 20.1301 108.611 20.1301C108.966 20.1301 109.236 20.1761 109.42 20.2682V21.9647ZM117.301 31C117.196 30.7896 117.111 30.4147 117.045 29.8755C116.196 30.7567 115.184 31.1973 114.007 31.1973C112.955 31.1973 112.09 30.9014 111.413 30.3095C110.742 29.7111 110.406 28.9549 110.406 28.0409C110.406 26.9295 110.827 26.0681 111.669 25.4565C112.517 24.8384 113.708 24.5293 115.24 24.5293H117.015V23.6909C117.015 23.0531 116.824 22.5467 116.443 22.1719C116.062 21.7905 115.499 21.5998 114.756 21.5998C114.105 21.5998 113.56 21.7642 113.119 22.093C112.678 22.4218 112.458 22.8196 112.458 23.2865H110.623C110.623 22.7539 110.811 22.2409 111.186 21.7477C111.567 21.248 112.08 20.8534 112.724 20.5641C113.375 20.2747 114.089 20.1301 114.865 20.1301C116.095 20.1301 117.058 20.4391 117.755 21.0573C118.452 21.6688 118.814 22.5138 118.84 23.5923V28.5045C118.84 29.4843 118.965 30.2635 119.215 30.8422V31H117.301ZM114.273 29.6092C114.845 29.6092 115.388 29.4612 115.901 29.1653C116.413 28.8694 116.785 28.4847 117.015 28.0113V25.8215H115.585C113.349 25.8215 112.231 26.4758 112.231 27.7844C112.231 28.3565 112.422 28.8037 112.803 29.1259C113.185 29.4481 113.675 29.6092 114.273 29.6092ZM123.417 20.3274L123.466 21.511C124.249 20.5904 125.304 20.1301 126.632 20.1301C128.125 20.1301 129.141 20.7022 129.68 21.8464C130.035 21.3335 130.496 20.9192 131.061 20.6035C131.633 20.2879 132.307 20.1301 133.083 20.1301C135.424 20.1301 136.615 21.3696 136.654 23.8487V31H134.829V23.9572C134.829 23.1944 134.655 22.6256 134.306 22.2508C133.958 21.8694 133.373 21.6787 132.551 21.6787C131.873 21.6787 131.311 21.8825 130.864 22.2903C130.417 22.6914 130.157 23.2339 130.085 23.9178V31H128.25V24.0066C128.25 22.4547 127.491 21.6787 125.972 21.6787C124.775 21.6787 123.956 22.1883 123.515 23.2076V31H121.691V20.3274H123.417ZM141.132 20.3274L141.182 21.511C141.964 20.5904 143.019 20.1301 144.348 20.1301C145.841 20.1301 146.857 20.7022 147.396 21.8464C147.751 21.3335 148.211 20.9192 148.777 20.6035C149.349 20.2879 150.023 20.1301 150.799 20.1301C153.14 20.1301 154.33 21.3696 154.369 23.8487V31H152.545V23.9572C152.545 23.1944 152.37 22.6256 152.022 22.2508C151.673 21.8694 151.088 21.6787 150.266 21.6787C149.589 21.6787 149.027 21.8825 148.579 22.2903C148.132 22.6914 147.872 23.2339 147.8 23.9178V31H145.965V24.0066C145.965 22.4547 145.206 21.6787 143.687 21.6787C142.49 21.6787 141.671 22.1883 141.231 23.2076V31H139.406V20.3274H141.132ZM163.72 31C163.615 30.7896 163.53 30.4147 163.464 29.8755C162.616 30.7567 161.603 31.1973 160.426 31.1973C159.374 31.1973 158.509 30.9014 157.832 30.3095C157.161 29.7111 156.826 28.9549 156.826 28.0409C156.826 26.9295 157.246 26.0681 158.088 25.4565C158.936 24.8384 160.127 24.5293 161.659 24.5293H163.434V23.6909C163.434 23.0531 163.244 22.5467 162.862 22.1719C162.481 21.7905 161.919 21.5998 161.175 21.5998C160.524 21.5998 159.979 21.7642 159.538 22.093C159.098 22.4218 158.877 22.8196 158.877 23.2865H157.043C157.043 22.7539 157.23 22.2409 157.605 21.7477C157.986 21.248 158.499 20.8534 159.144 20.5641C159.795 20.2747 160.508 20.1301 161.284 20.1301C162.514 20.1301 163.477 20.4391 164.174 21.0573C164.871 21.6688 165.233 22.5138 165.259 23.5923V28.5045C165.259 29.4843 165.384 30.2635 165.634 30.8422V31H163.72ZM160.692 29.6092C161.264 29.6092 161.807 29.4612 162.32 29.1653C162.833 28.8694 163.204 28.4847 163.434 28.0113V25.8215H162.004C159.768 25.8215 158.65 26.4758 158.65 27.7844C158.65 28.3565 158.841 28.8037 159.222 29.1259C159.604 29.4481 160.094 29.6092 160.692 29.6092ZM173.278 21.9647C173.002 21.9187 172.703 21.8957 172.381 21.8957C171.184 21.8957 170.372 22.4053 169.944 23.4246V31H168.12V20.3274H169.895L169.925 21.5603C170.523 20.6068 171.371 20.1301 172.47 20.1301C172.825 20.1301 173.094 20.1761 173.278 20.2682V21.9647Z" fill="#381BCB"/>
<path d="M36.232 17.232L39.768 20.768L36.232 17.232ZM37.732 15.732C38.2009 15.2631 38.8369 14.9997 39.5 14.9997C40.1631 14.9997 40.7991 15.2631 41.268 15.732C41.7369 16.2009 42.0003 16.8369 42.0003 17.5C42.0003 18.1631 41.7369 18.7991 41.268 19.268L27.5 33.036H24V29.464L37.732 15.732V15.732Z" stroke="#381BCB" stroke-width="2" stroke-linecap="round" stroke-linejoin="round"/>
</svg>
