<svg width="131" height="49" viewBox="0 0 131 49" fill="none" xmlns="http://www.w3.org/2000/svg">
<rect width="131" height="49" rx="15" fill="#A998FF"/>
<path d="M67.59 19.1968H62.9737V32H61.0897V19.1968H56.4833V17.6383H67.59V19.1968ZM67.9648 26.565C67.9648 25.5195 68.1687 24.5791 68.5764 23.744C68.9906 22.9089 69.5627 22.2644 70.2927 21.8107C71.0292 21.3569 71.8676 21.1301 72.8079 21.1301C74.2612 21.1301 75.435 21.6331 76.3293 22.6392C77.2302 23.6454 77.6807 24.9835 77.6807 26.6538V26.782C77.6807 27.821 77.4801 28.7548 77.079 29.5834C76.6844 30.4054 76.1156 31.0465 75.3725 31.5068C74.636 31.9671 73.7877 32.1973 72.8277 32.1973C71.381 32.1973 70.2072 31.6942 69.3063 30.6881C68.412 29.682 67.9648 28.3504 67.9648 26.6933V26.565ZM69.7995 26.782C69.7995 27.9657 70.0724 28.9159 70.6182 29.6327C71.1705 30.3495 71.907 30.7078 72.8277 30.7078C73.7549 30.7078 74.4914 30.3462 75.0372 29.6228C75.583 28.8929 75.8559 27.8736 75.8559 26.565C75.8559 25.3945 75.5764 24.4476 75.0174 23.7243C74.4651 22.9943 73.7286 22.6294 72.8079 22.6294C71.907 22.6294 71.1804 22.9878 70.628 23.7045C70.0757 24.4213 69.7995 25.4471 69.7995 26.782ZM79.5252 26.5749C79.5252 24.9375 79.9132 23.6223 80.6891 22.6294C81.4651 21.6298 82.481 21.1301 83.737 21.1301C84.9865 21.1301 85.9761 21.5575 86.706 22.4124V16.8492H88.5309V32H86.854L86.7652 30.8558C86.0353 31.7501 85.0193 32.1973 83.7173 32.1973C82.481 32.1973 81.4717 31.6909 80.6891 30.6782C79.9132 29.6656 79.5252 28.3438 79.5252 26.713V26.5749ZM81.35 26.782C81.35 27.992 81.5999 28.9389 82.0996 29.6228C82.5994 30.3067 83.2899 30.6487 84.171 30.6487C85.3284 30.6487 86.1734 30.1292 86.706 29.0902V24.1879C86.1603 23.1818 85.3218 22.6787 84.1908 22.6787C83.2965 22.6787 82.5994 23.0239 82.0996 23.7144C81.5999 24.4049 81.35 25.4274 81.35 26.782ZM90.8883 26.565C90.8883 25.5195 91.0922 24.5791 91.4999 23.744C91.9141 22.9089 92.4862 22.2644 93.2162 21.8107C93.9527 21.3569 94.7911 21.1301 95.7314 21.1301C97.1847 21.1301 98.3585 21.6331 99.2528 22.6392C100.154 23.6454 100.604 24.9835 100.604 26.6538V26.782C100.604 27.821 100.404 28.7548 100.002 29.5834C99.6079 30.4054 99.0391 31.0465 98.296 31.5068C97.5595 31.9671 96.7112 32.1973 95.7512 32.1973C94.3045 32.1973 93.1307 31.6942 92.2298 30.6881C91.3355 29.682 90.8883 28.3504 90.8883 26.6933V26.565ZM92.723 26.782C92.723 27.9657 92.9959 28.9159 93.5417 29.6327C94.094 30.3495 94.8305 30.7078 95.7512 30.7078C96.6784 30.7078 97.4149 30.3462 97.9607 29.6228C98.5065 28.8929 98.7794 27.8736 98.7794 26.565C98.7794 25.3945 98.4999 24.4476 97.9409 23.7243C97.3886 22.9943 96.6521 22.6294 95.7314 22.6294C94.8305 22.6294 94.1039 22.9878 93.5515 23.7045C92.9992 24.4213 92.723 25.4471 92.723 26.782Z" fill="#381BCB"/>
<path d="M28 28H28.01M28 17H26C25.4696 17 24.9609 17.2107 24.5858 17.5858C24.2107 17.9609 24 18.4696 24 19V31C24 31.5304 24.2107 32.0391 24.5858 32.4142C24.9609 32.7893 25.4696 33 26 33H36C36.5304 33 37.0391 32.7893 37.4142 32.4142C37.7893 32.0391 38 31.5304 38 31V19C38 18.4696 37.7893 17.9609 37.4142 17.5858C37.0391 17.2107 36.5304 17 36 17H34H28ZM28 17C28 17.5304 28.2107 18.0391 28.5858 18.4142C28.9609 18.7893 29.4696 19 30 19H32C32.5304 19 33.0391 18.7893 33.4142 18.4142C33.7893 18.0391 34 17.5304 34 17H28ZM28 17C28 16.4696 28.2107 15.9609 28.5858 15.5858C28.9609 15.2107 29.4696 15 30 15H32C32.5304 15 33.0391 15.2107 33.4142 15.5858C33.7893 15.9609 34 16.4696 34 17H28ZM31 24H34H31ZM31 28H34H31ZM28 24H28.01H28Z" stroke="#381BCB" stroke-width="2" stroke-linecap="round" stroke-linejoin="round"/>
</svg>
