<svg width="193" height="43" viewBox="0 0 193 43" fill="none" xmlns="http://www.w3.org/2000/svg">
<rect width="193" height="43" rx="15" fill="#F3F3F3"/>
<path d="M67.293 24.165C67.1436 25.4434 66.6704 26.4312 65.8735 27.1284C65.0822 27.8201 64.028 28.166 62.7109 28.166C61.2832 28.166 60.1377 27.6541 59.2744 26.6304C58.4167 25.6066 57.9878 24.237 57.9878 22.5215V21.3594C57.9878 20.236 58.187 19.2482 58.5854 18.396C58.9894 17.5438 59.5594 16.8908 60.2954 16.437C61.0314 15.9777 61.8836 15.748 62.8521 15.748C64.1359 15.748 65.1652 16.1077 65.9399 16.8271C66.7147 17.541 67.1657 18.5316 67.293 19.7988H65.6909C65.5526 18.8359 65.251 18.1387 64.7861 17.707C64.3268 17.2754 63.6821 17.0596 62.8521 17.0596C61.8338 17.0596 61.0342 17.4359 60.4531 18.1885C59.8776 18.9411 59.5898 20.0119 59.5898 21.4009V22.5713C59.5898 23.8828 59.8638 24.9259 60.4116 25.7007C60.9595 26.4754 61.7259 26.8628 62.7109 26.8628C63.5964 26.8628 64.2743 26.6636 64.7446 26.2651C65.2205 25.8612 65.536 25.1611 65.6909 24.165H67.293ZM68.8286 23.4263C68.8286 22.5464 69.0002 21.755 69.3433 21.0522C69.6919 20.3494 70.1733 19.8071 70.7876 19.4253C71.4074 19.0435 72.113 18.8525 72.9043 18.8525C74.1273 18.8525 75.1151 19.2759 75.8677 20.1226C76.6258 20.9692 77.0049 22.0954 77.0049 23.501V23.6089C77.0049 24.4832 76.8361 25.269 76.4985 25.9663C76.1665 26.658 75.6878 27.1976 75.0625 27.585C74.4427 27.9723 73.7288 28.166 72.9209 28.166C71.7035 28.166 70.7157 27.7427 69.9575 26.896C69.2049 26.0493 68.8286 24.9287 68.8286 23.5342V23.4263ZM70.3726 23.6089C70.3726 24.605 70.6022 25.4046 71.0615 26.0078C71.5264 26.611 72.1462 26.9126 72.9209 26.9126C73.7012 26.9126 74.321 26.6082 74.7803 25.9995C75.2396 25.3853 75.4692 24.5275 75.4692 23.4263C75.4692 22.4412 75.234 21.6444 74.7637 21.0356C74.2988 20.4214 73.679 20.1143 72.9043 20.1143C72.1462 20.1143 71.5347 20.4159 71.0698 21.019C70.605 21.6222 70.3726 22.4855 70.3726 23.6089ZM86.5176 23.6089C86.5176 24.9757 86.2049 26.077 85.5796 26.9126C84.9543 27.7482 84.1076 28.166 83.0396 28.166C81.9494 28.166 81.0916 27.8201 80.4663 27.1284V31.4531H78.9307V19.0186H80.3335L80.4082 20.0146C81.0335 19.2399 81.9023 18.8525 83.0146 18.8525C84.0938 18.8525 84.946 19.2593 85.5713 20.0728C86.2021 20.8862 86.5176 22.0179 86.5176 23.4678V23.6089ZM84.9819 23.4346C84.9819 22.4219 84.7661 21.6222 84.3345 21.0356C83.9028 20.4491 83.3107 20.1558 82.5581 20.1558C81.6284 20.1558 80.9312 20.568 80.4663 21.3926V25.6841C80.9256 26.5031 81.6284 26.9126 82.5747 26.9126C83.3107 26.9126 83.8945 26.6221 84.3262 26.041C84.7633 25.4544 84.9819 24.5856 84.9819 23.4346ZM91.3154 25.7505L93.4072 19.0186H95.0508L91.4399 29.3862C90.881 30.8804 89.9928 31.6274 88.7754 31.6274L88.4849 31.6025L87.9121 31.4946V30.2495L88.3271 30.2827C88.8473 30.2827 89.2513 30.1776 89.5391 29.9673C89.8324 29.757 90.0731 29.3724 90.2612 28.8135L90.6016 27.9004L87.3975 19.0186H89.0742L91.3154 25.7505ZM110.183 22.3472C110.183 23.5314 109.984 24.5662 109.585 25.4517C109.187 26.3315 108.623 27.0039 107.892 27.4688C107.162 27.9336 106.309 28.166 105.335 28.166C104.384 28.166 103.54 27.9336 102.804 27.4688C102.068 26.9984 101.495 26.3315 101.085 25.4683C100.681 24.5994 100.474 23.5951 100.463 22.4551V21.5835C100.463 20.4214 100.665 19.3949 101.069 18.5039C101.473 17.613 102.043 16.9323 102.779 16.4619C103.52 15.986 104.367 15.748 105.319 15.748C106.287 15.748 107.139 15.9832 107.875 16.4536C108.617 16.9185 109.187 17.5964 109.585 18.4873C109.984 19.3727 110.183 20.4048 110.183 21.5835V22.3472ZM108.598 21.5669C108.598 20.1336 108.31 19.0352 107.734 18.2715C107.159 17.5023 106.354 17.1177 105.319 17.1177C104.312 17.1177 103.518 17.5023 102.937 18.2715C102.361 19.0352 102.065 20.0977 102.048 21.459V22.3472C102.048 23.7362 102.339 24.8291 102.92 25.626C103.507 26.4173 104.312 26.813 105.335 26.813C106.365 26.813 107.162 26.4395 107.726 25.6924C108.291 24.9398 108.581 23.8634 108.598 22.4634V21.5669ZM117.878 27.1118C117.28 27.8146 116.403 28.166 115.247 28.166C114.289 28.166 113.559 27.8893 113.055 27.3359C112.557 26.777 112.305 25.9525 112.3 24.8623V19.0186H113.835V24.8208C113.835 26.1821 114.389 26.8628 115.496 26.8628C116.669 26.8628 117.449 26.4256 117.836 25.5513V19.0186H119.372V28H117.911L117.878 27.1118ZM123.796 16.8438V19.0186H125.473V20.2056H123.796V25.7754C123.796 26.1351 123.871 26.4062 124.021 26.5889C124.17 26.766 124.424 26.8545 124.784 26.8545C124.961 26.8545 125.205 26.8213 125.515 26.7549V28C125.111 28.1107 124.718 28.166 124.336 28.166C123.65 28.166 123.132 27.9585 122.784 27.5435C122.435 27.1284 122.261 26.5391 122.261 25.7754V20.2056H120.625V19.0186H122.261V16.8438H123.796ZM134.861 23.6089C134.861 24.9757 134.549 26.077 133.923 26.9126C133.298 27.7482 132.451 28.166 131.383 28.166C130.293 28.166 129.435 27.8201 128.81 27.1284V31.4531H127.274V19.0186H128.677L128.752 20.0146C129.377 19.2399 130.246 18.8525 131.358 18.8525C132.438 18.8525 133.29 19.2593 133.915 20.0728C134.546 20.8862 134.861 22.0179 134.861 23.4678V23.6089ZM133.326 23.4346C133.326 22.4219 133.11 21.6222 132.678 21.0356C132.247 20.4491 131.654 20.1558 130.902 20.1558C129.972 20.1558 129.275 20.568 128.81 21.3926V25.6841C129.269 26.5031 129.972 26.9126 130.918 26.9126C131.654 26.9126 132.238 26.6221 132.67 26.041C133.107 25.4544 133.326 24.5856 133.326 23.4346ZM142.365 27.1118C141.768 27.8146 140.89 28.166 139.734 28.166C138.777 28.166 138.046 27.8893 137.542 27.3359C137.044 26.777 136.793 25.9525 136.787 24.8623V19.0186H138.323V24.8208C138.323 26.1821 138.876 26.8628 139.983 26.8628C141.156 26.8628 141.936 26.4256 142.324 25.5513V19.0186H143.859V28H142.398L142.365 27.1118ZM148.284 16.8438V19.0186H149.96V20.2056H148.284V25.7754C148.284 26.1351 148.358 26.4062 148.508 26.5889C148.657 26.766 148.912 26.8545 149.271 26.8545C149.449 26.8545 149.692 26.8213 150.002 26.7549V28C149.598 28.1107 149.205 28.166 148.823 28.166C148.137 28.166 147.62 27.9585 147.271 27.5435C146.922 27.1284 146.748 26.5391 146.748 25.7754V20.2056H145.113V19.0186H146.748V16.8438H148.284Z" fill="#535353"/>
<path d="M28.6667 26.3333H26.75C26.2417 26.3333 25.7542 26.1314 25.3947 25.7719C25.0353 25.4125 24.8333 24.925 24.8333 24.4167V16.75C24.8333 16.2417 25.0353 15.7542 25.3947 15.3947C25.7542 15.0353 26.2417 14.8333 26.75 14.8333H34.4167C34.925 14.8333 35.4125 15.0353 35.772 15.3947C36.1314 15.7542 36.3333 16.2417 36.3333 16.75V18.6667L28.6667 26.3333ZM30.5833 30.1667H38.25C38.7583 30.1667 39.2458 29.9647 39.6053 29.6053C39.9647 29.2458 40.1667 28.7583 40.1667 28.25V20.5833C40.1667 20.075 39.9647 19.5875 39.6053 19.228C39.2458 18.8686 38.7583 18.6667 38.25 18.6667H30.5833C30.075 18.6667 29.5875 18.8686 29.228 19.228C28.8686 19.5875 28.6667 20.075 28.6667 20.5833V28.25C28.6667 28.7583 28.8686 29.2458 29.228 29.6053C29.5875 29.9647 30.075 30.1667 30.5833 30.1667Z" stroke="#535353" stroke-width="2" stroke-linecap="round" stroke-linejoin="round"/>
</svg>
